# AST/ASF file generated using VICON BodyLanguage
# -----------------------------------------------
:version 1.10
:name VICON
:units
  mass 1.0
  length 0.45
  angle deg
:documentation
   .ast/.asf automatically generated from VICON data using
   VICON BodyBuilder and BodyLanguage model FoxedUp or BRILLIANT.MOD
:root
   order TX TY TZ RX RY RZ
   axis XYZ
   position 0 0 0  
   orientation 0 0 0 
:bonedata
  begin
     id 1 
     name lhipjoint
     direction 0.575328 -0.747301 0.332475 
     length 2.40933 
     axis 0 0 0  XYZ
  end
  begin
     id 2 
     name lfemur
     direction 0.34202 -0.939693 0  
     length 7.31453  
     axis 0 0 20  XYZ
    dof rx ry rz
    limits (-160.0 20.0)
           (-70.0 70.0)
           (-60.0 70.0)
  end
  begin
     id 3 
     name ltibia
     direction 0.34202 -0.939693 0   
     length 7.82185   
     axis 0 0 20   XYZ
    dof rx
    limits (-10.0 170.0)
  end
  begin
     id 4 
     name lfoot
     direction 0.0795993 -0.218697 0.972541   
     length 2.19173   
     axis -90 7.62852e-016 20   XYZ
    dof rx rz
    limits (-45.0 90.0)
           (-70.0 20.0)
  end
  begin
     id 5 
     name ltoes
     direction 1.53537e-011 -4.21894e-011 1   
     length 1.10023   
     axis -90 7.62852e-016 20   XYZ
    dof rx
    limits (-90.0 20.0)
  end
  begin
     id 6 
     name rhipjoint
     direction -0.513884 -0.783789 0.348708   
     length 2.29716  
     axis 0 0 0  XYZ 
  end
  begin
     id 7 
     name rfemur
     direction -0.34202 -0.939693 0   
     length 7.59573   
     axis 0 0 -20   XYZ
    dof rx ry rz
    limits (-160.0 20.0)
           (-70.0 70.0)
           (-70.0 60.0)
  end
  begin
     id 8 
     name rtibia
     direction -0.34202 -0.939693 0   
     length 7.66402   
     axis 0 0 -20   XYZ
    dof rx
    limits (-10.0 170.0)
 end
 begin
     id 9 
     name rfoot
     direction -0.137793 -0.378584 0.915253   
     length 2.27056  
     axis -90 -7.62852e-016 -20   XYZ
    dof rx rz
    limits (-45.0 90.0)
           (-20.0 70.0)
  end
  begin
     id 10 
     name rtoes
     direction -1.53493e-011 -4.22159e-011 1   
     length 1.11766   
     axis -90 -7.62852e-016 -20   XYZ
    dof rx
    limits (-90.0 20.0)
  end
  begin
     id 11 
     name lowerback
     direction -0.00732775 0.998356 -0.05685   
     length 2.16513   
     axis 0 0 0   XYZ
    dof rx ry rz
    limits (-20.0 45.0)
           (-30.0 30.0)
           (-30.0 30.0)
  end
  begin
     id 12 
     name upperback
     direction 0.0218081 0.999627 -0.0164647   
     length 2.16755   
     axis 0 0 0   XYZ
    dof rx ry rz
    limits (-20.0 45.0)
           (-30.0 30.0)
           (-30.0 30.0)
  end
  begin
     id 13 
     name thorax
     direction 0.02365 0.999661 0.0108914   
     length 2.16932   
     axis 0 0 0   XYZ
    dof rx ry rz
    limits (-20.0 45.0)
           (-30.0 30.0)
           (-30.0 30.0)
  end
  begin
     id 14 
     name lowerneck
     direction -0.0523929 0.978385 0.200044   
     length 1.63877   
     axis 0 0 0   XYZ
    dof rx ry rz
    limits (-20.0 45.0)
           (-30.0 30.0)
           (-30.0 30.0)
  end
  begin
     id 15 
     name upperneck
     direction 0.0448674 0.981321 -0.187074   
     length 1.69014   
     axis 0 0 0   XYZ
    dof rx ry rz
    limits (-20.0 45.0)
           (-30.0 30.0)
           (-30.0 30.0)
  end
  begin
     id 16
     name head
     direction 0.0199089 0.996118 -0.0857429  
     length 1.70094  
     axis 0 0 0   XYZ
    dof rx ry rz
    limits (-20.0 45.0)
           (-30.0 30.0)
           (-30.0 30.0)
  end
  begin
     id 17 
     name lclavicle
     direction 0.940366 0.30191 -0.156722  
     length 3.37521  
     axis 0 0 0   XYZ
    dof ry rz
    limits (-20.0 10.0)
           (0.0 20.0)
  end
  begin
     id 18 
     name lhumerus
     direction 1 -4.4897e-011 -1.7911e-027   
     length 5.25287   
     axis 180 -30 -90   XYZ
    dof rx ry rz
    limits (-60.0 90.0)
           (-90.0 90.0)
           (-90.0 90.0)
  end
  begin
     id 19
     name lradius
     direction 1 -4.48951e-011 1.04424e-027   
     length 3.51014   
     axis 180 -30 -90   XYZ
    dof rx
    limits (-10.0 170.0)
  end
  begin
     id 20
     name lwrist
     direction 1 -4.48997e-011 -9.5942e-028   
     length 1.75507   
     axis 8.48502e-016 90 90   XYZ
    dof ry
    limits (-180.0 0.0)
 end
  begin
     id 21 
     name lhand
     direction 1 -4.48831e-011 -1.90777e-027   
     length 0.706179   
     axis 1.22306e-015 90 90   XYZ
    dof rx rz
    limits (-90.0 90.0)
           (-45.0 45.0)
  end
  begin
     id 22 
     name lfingers
     direction 1 -4.49108e-011 -3.85244e-027   
     length 0.569339   
     axis 2.44611e-015 90 90   XYZ
    dof rx
    limits (0.0 90.0)
  end
  begin
     id 23
     name lthumb
     direction 0.707107 -6.34953e-011 0.707107   
     length 0.817461   
     axis -90 45 -1.62303e-014   XYZ
    dof rx rz
    limits (-45.0 45.0)
           (-45.0 45.0)
  end
  begin
     id 24 
     name rclavicle
     direction -0.905329 0.382405 -0.184787   
     length 3.30787  
     axis 0 0 0   XYZ 
    dof ry rz
    limits (-10.0 20.0)
           (-20.0 0.0)
  end
  begin
     id 25 
     name rhumerus
     direction -1 -4.48953e-011 -9.15316e-029  
     length 5.28721   
     axis 180 30 90   XYZ
    dof rx ry rz
    limits (-90.0 60.0)
           (-90.0 90.0)
           (-90.0 90.0)
  end
  begin
     id 26 
     name rradius
     direction -1 -4.48987e-011 9.37824e-028   
     length 3.50544   
     axis 180 30 90   XYZ
    dof rx
    limits (-10.0 170.0)
  end
  begin
     id 27 
     name rwrist
     direction -1 -4.48967e-011 -9.58414e-028   
     length 1.75272   
     axis 8.48502e-016 -90 -90   XYZ
    dof ry
    limits (-180.0 0.0)
  end
  begin
     id 28
     name rhand
     direction -1 -4.48904e-011 -1.91266e-027   
     length 0.884996   
     axis 1.22306e-015 -90 -90   XYZ
    dof rx rz
    limits (-90.0 90.0)
           (-45.0 45.0)
  end
  begin
     id 29
     name rfingers
     direction -1 -4.4909e-011 -3.85015e-027   
     length 0.713507   
     axis 2.44611e-015 -90 -90   XYZ
    dof rx
    limits (0.0 90.0)
  end
  begin
     id 30
     name rthumb
     direction -0.707107 -6.34853e-011 0.707107   
     length 1.02446   
     axis -90 -45 1.62303e-014   XYZ
    dof rx rz
    limits (-45.0 45.0)
           (-45.0 45.0)
  end
:hierarchy
  begin
    root lhipjoint rhipjoint lowerback
    lhipjoint lfemur
    lfemur ltibia
    ltibia lfoot
    lfoot ltoes
    rhipjoint rfemur
    rfemur rtibia
    rtibia rfoot
    rfoot rtoes
    lowerback upperback
    upperback thorax
    thorax lowerneck lclavicle rclavicle
    lowerneck upperneck
    upperneck head
    lclavicle lhumerus
    lhumerus lradius
    lradius lwrist
    lwrist lhand lthumb
    lhand lfingers
    rclavicle rhumerus
    rhumerus rradius
    rradius rwrist
    rwrist rhand rthumb
    rhand rfingers
  end

#!OML:ASF F:\twosubjects\two\Thursday\Session 1\justin.ASF
:FULLY-SPECIFIED
:DEGREES
111
root 9.54295 18.3689 8.1895 -171.862 0.510061 -176.394
lowerback -2.45481 0.628065 -1.21448
upperback 1.92912 0.917167 3.818
thorax 3.28713 0.443773 4.68663
lowerneck -15.9897 -3.67584 -11.3946
upperneck 28.0142 -6.65275 9.49788
head 12.6414 -3.58009 4.43478
rclavicle 9.93923e-017 1.51076e-014
rhumerus -25.473 -8.69348 -81.3368
rradius 35.8158
rwrist -9.52427
rhand -13.193 12.5729
rfingers 7.12502
rthumb 12.9072 -17.0079
lclavicle 9.93923e-017 1.51076e-014
lhumerus -32.6688 8.54909 85.865
lradius 38.4717
lwrist 0.726324
lhand -5.71844 39.2205
lfingers 7.12502
lthumb 20.103 68.2005
rfemur -18.0783 -2.98648 27.6931
rtibia 29.167
rfoot -16.8479 -8.21941
rtoes -4.34496
lfemur -14.731 9.14599 -10.6827
ltibia 44.372
lfoot -6.87502 -10.7459
ltoes -22.6475
112
root 9.55111 18.3608 8.1726 -172.07 0.750956 -176.295
lowerback -2.69104 0.75128 -1.17442
upperback 1.91953 1.08103 3.88457
thorax 3.39563 0.525777 4.74748
lowerneck -15.6527 -3.63522 -11.2387
upperneck 28.5204 -6.8543 9.44681
head 12.7922 -3.71886 4.36399
rclavicle -1.58034e-014 -2.38542e-014
rhumerus -25.6797 -8.83173 -81.1595
rradius 36.6775
rwrist -10.5871
rhand -13.5225 12.9982
rfingers 7.12502
rthumb 12.5895 -16.6025
lclavicle -1.58034e-014 -2.38542e-014
lhumerus -32.8445 7.85833 86.3839
lradius 39.067
lwrist 1.49551
lhand -5.24527 38.866
lfingers 7.12502
lthumb 20.5577 67.7975
rfemur -17.8829 -2.78441 27.7889
rtibia 29.4117
rfoot -17.0672 -8.25408
rtoes -4.40665
lfemur -14.688 9.20537 -10.4419
ltibia 44.355
lfoot -6.8234 -10.2419
ltoes -22.2811
113
root 9.58596 18.3564 8.13607 -172.836 0.583764 -176.673
lowerback -2.61427 0.561246 -2.14698
upperback 1.93096 0.861949 4.09844
thorax 3.37091 0.391071 5.51484
lowerneck -14.8968 -3.4333 -11.3321
upperneck 28.9558 -6.79282 9.32522
head 12.7966 -3.79959 4.35233
rclavicle -3.27995e-015 -1.03368e-014
rhumerus -26.0535 -8.67484 -80.8221
rradius 37.3056
rwrist -11.425
rhand -13.4671 13.2737
rfingers 7.12502
rthumb 12.6429 -16.3236
lclavicle -3.27995e-015 -1.03368e-014
lhumerus -33.4306 7.59794 86.8847
lradius 39.6562
lwrist 2.25088
lhand -5.30467 38.6011
lfingers 7.12502
lthumb 20.5007 67.5387
rfemur -16.8891 -2.34549 27.448
rtibia 29.6364
rfoot -17.4634 -8.96686
rtoes -4.30487
lfemur -13.9328 9.1267 -10.4585
ltibia 44.0578
lfoot -6.56296 -10.1567
ltoes -21.6803
114
root 9.60666 18.3457 8.10852 -173.442 0.643356 -176.997
lowerback -2.44004 0.512815 -2.95987
upperback 1.89732 0.824198 4.25637
thorax 3.23232 0.354706 6.14218
lowerneck -14.3336 -3.2938 -11.3028
upperneck 29.3545 -6.77416 9.10178
head 12.825 -3.88344 4.26982
rclavicle -8.34896e-015 -5.32743e-014
rhumerus -26.3615 -8.70197 -80.515
rradius 37.9832
rwrist -12.1
rhand -13.3947 13.2453
rfingers 7.12502
rthumb 12.7127 -16.3477
lclavicle -8.34896e-015 -5.32743e-014
lhumerus -33.8114 7.08697 87.4779
lradius 40.209
lwrist 3.07524
lhand -5.81488 38.0373
lfingers 7.12502
lthumb 20.0103 67.0269
rfemur -16.1298 -1.93978 27.1093
rtibia 29.8453
rfoot -17.8976 -9.30072
rtoes -3.83485
lfemur -13.2404 9.21298 -10.5846
ltibia 43.5116
lfoot -6.65634 -10.0922
ltoes -22.414
115
root 9.60863 18.3307 8.0901 -173.772 1.05543 -177.077
lowerback -2.65082 0.671069 -3.07511
upperback 2.09852 1.04231 4.2489
thorax 3.53164 0.449699 6.2209
lowerneck -14.538 -3.32418 -11.1733
upperneck 29.8225 -6.91521 8.97609
head 13.0706 -3.97025 4.17995
rclavicle -8.94531e-015 -4.37326e-014
rhumerus -26.1101 -8.95073 -80.5352
rradius 38.6102
rwrist -12.5075
rhand -14.2156 13.4149
rfingers 7.12502
rthumb 11.9212 -16.2256
lclavicle -8.94531e-015 -4.37326e-014
lhumerus -33.6002 6.27586 88.0771
lradius 40.719
lwrist 3.38254
lhand -5.40518 37.7539
lfingers 7.12502
lthumb 20.4041 66.7019
rfemur -15.8025 -1.74989 26.9692
rtibia 30.0581
rfoot -18.2493 -9.11843
rtoes -2.46302
lfemur -12.8066 9.40189 -10.6565
ltibia 42.8313
lfoot -6.80648 -9.98884
ltoes -24.216
116
root 9.61175 18.318 8.07541 -173.995 1.54487 -177.237
lowerback -3.24326 0.713537 -3.1682
upperback 2.3882 1.10862 4.22503
thorax 4.16059 0.457209 6.27627
lowerneck -14.7621 -3.2744 -11.2197
upperneck 30.1932 -6.8674 8.90222
head 13.2664 -3.97945 4.1708
rclavicle -2.37548e-014 -3.97569e-014
rhumerus -25.6659 -8.37783 -80.7532
rradius 39.1163
rwrist -12.8681
rhand -15.8358 13.5789
rfingers 7.12502
rthumb 10.3586 -16.146
lclavicle -2.37548e-014 -3.97569e-014
lhumerus -33.3751 5.92655 88.5414
lradius 41.2124
lwrist 3.40774
lhand -4.47312 37.9775
lfingers 7.12502
lthumb 21.2996 66.8271
rfemur -15.6247 -1.47333 26.7755
rtibia 30.204
rfoot -18.535 -9.11064
rtoes -1.30317
lfemur -12.5834 9.55781 -10.8253
ltibia 42.2555
lfoot -6.38036 -10.3334
ltoes -23.9696
117
root 9.61725 18.3068 8.07022 -174.158 1.92758 -177.258
lowerback -3.84012 0.620871 -3.23101
upperback 2.54159 0.995806 4.33251
thorax 4.67425 0.381473 6.44112
lowerneck -14.519 -3.155 -11.355
upperneck 30.34 -6.73269 8.81807
head 13.2583 -3.97723 4.18558
rclavicle -4.67144e-015 -2.78299e-014
rhumerus -25.4355 -7.59717 -80.7567
rradius 39.6932
rwrist -13.8871
rhand -16.1473 13.4927
rfingers 7.12502
rthumb 10.0581 -16.2469
lclavicle -4.67144e-015 -2.78299e-014
lhumerus -33.3355 5.86102 88.9306
lradius 41.5539
lwrist 3.45372
lhand -5.18522 37.2049
lfingers 7.12502
lthumb 20.6154 66.1302
rfemur -15.5199 -1.12534 26.7463
rtibia 30.3054
rfoot -18.8478 -9.20843
rtoes -0.760074
lfemur -12.4913 9.67054 -10.8089
ltibia 41.9292
lfoot -5.7977 -10.722
ltoes -21.8566
118
root 9.62393 18.31 8.06704 -174.418 2.27916 -177.335
lowerback -4.19157 0.627276 -3.37537
upperback 2.6578 1.01766 4.4153
thorax 4.99169 0.375599 6.6287
lowerneck -14.2593 -5.84565 -10.8216
upperneck 30.9551 -5.812 7.80332
head 13.3995 -2.05754 4.21538
rclavicle 2.48481e-015 -3.4191e-014
rhumerus -25.3554 -7.25799 -80.7207
rradius 40.3357
rwrist -14.305
rhand -16.371 13.1133
rfingers 7.12502
rthumb 9.84222 -16.6367
lclavicle 2.48481e-015 -3.4191e-014
lhumerus -33.3433 5.44397 89.3954
lradius 41.8338
lwrist 3.1791
lhand -6.04417 36.2944
lfingers 7.12502
lthumb 19.7899 65.3069
rfemur -15.3224 -0.947052 26.6327
rtibia 30.4724
rfoot -19.1784 -9.09895
rtoes -0.33375
lfemur -12.2571 9.83428 -10.8364
ltibia 41.9567
lfoot -5.27552 -10.7872
ltoes -21.7965
119
root 9.62846 18.3118 8.06462 -174.747 2.65167 -177.734
lowerback -4.47053 0.629284 -3.83108
upperback 2.77734 1.0487 4.41511
thorax 5.26811 0.36062 6.9066
lowerneck -13.9465 -5.82252 -11.0386
upperneck 31.062 -5.74132 7.92902
head 13.3838 -2.02494 4.32652
rclavicle 1.11319e-014 4.85035e-014
rhumerus -25.2155 -7.0186 -80.7099
rradius 40.7594
rwrist -14.4149
rhand -15.7938 13.4065
rfingers 7.12502
rthumb 10.3991 -16.3163
lclavicle 1.11319e-014 4.85035e-014
lhumerus -33.3742 5.10712 89.8796
lradius 42.1156
lwrist 2.71734
lhand -5.91874 36.1596
lfingers 7.12502
lthumb 19.9105 65.1597
rfemur -15.0674 -0.921227 26.134
rtibia 30.7167
rfoot -19.5339 -8.71483
rtoes 0.817617
lfemur -11.9401 10.0475 -11.2587
ltibia 42.3455
lfoot -4.77338 -10.6873
ltoes -23.8759
120
root 9.62899 18.2944 8.06895 -174.949 3.00433 -178.095
lowerback -4.88501 0.559477 -4.26629
upperback 2.90519 0.989479 4.4649
thorax 5.64564 0.295992 7.22478
lowerneck -13.8665 -5.68415 -11.3127
upperneck 31.2116 -5.4761 8.04791
head 13.4138 -1.9172 4.47599
rclavicle -7.95139e-016 -1.03368e-014
rhumerus -24.9967 -6.40183 -80.7064
rradius 41.1811
rwrist -14.6473
rhand -15.2677 13.7842
rfingers 7.12502
rthumb 10.9066 -15.9126
lclavicle -7.95139e-016 -1.03368e-014
lhumerus -33.1773 4.92933 90.3833
lradius 42.1738
lwrist 2.51383
lhand -5.91448 36.1396
lfingers 7.12502
lthumb 19.9146 65.1392
rfemur -15.0095 -0.939483 25.6768
rtibia 31.0016
rfoot -19.8441 -8.24591
rtoes 1.99791
lfemur -11.9004 10.3606 -11.7027
ltibia 42.9789
lfoot -4.90942 -10.3569
ltoes -25.8257
121
root 9.62916 18.2734 8.07897 -175.128 3.33382 -177.976
lowerback -5.04468 0.82913 -4.06642
upperback 3.18065 1.35014 4.48338
thorax 5.976 0.469562 7.17756
lowerneck -14.7314 -5.91252 -11.0025
upperneck 31.4258 -5.8028 7.86287
head 13.7171 -2.04813 4.29446
rclavicle -1.87852e-014 7.15625e-015
rhumerus -24.5643 -6.79875 -80.5865
rradius 41.6247
rwrist -14.5966
rhand -15.0885 13.9717
rfingers 7.12502
rthumb 11.0794 -15.7158
lclavicle -1.87852e-014 7.15625e-015
lhumerus -32.3825 3.71478 91.0366
lradius 41.9505
lwrist 2.39778
lhand -5.89745 36.3088
lfingers 7.12502
lthumb 19.9309 65.3068
rfemur -15.0666 -0.990383 25.7941
rtibia 31.34
rfoot -20.0103 -7.95538
rtoes 1.64674
lfemur -11.998 10.8613 -11.5747
ltibia 43.6473
lfoot -5.28499 -10.2278
ltoes -26.3955
